<svg xmlns="http://www.w3.org/2000/svg" version="1.1" xmlns:xlink="http://www.w3.org/1999/xlink" xmlns:svgjs="http://svgjs.dev/svgjs" width="1500" height="628" viewBox="0 0 1500 628"><g transform="matrix(1,0,0,1,-0.9090909090909918,-0.26867888454614786)"><svg viewBox="0 0 396 166" data-background-color="#ffffff" preserveAspectRatio="xMidYMid meet" height="628" width="1500" xmlns="http://www.w3.org/2000/svg" xmlns:xlink="http://www.w3.org/1999/xlink"><g id="tight-bounds" transform="matrix(1,0,0,1,0.2400000000000091,0.0710202147048733)"><svg viewBox="0 0 395.52 136.5173107958904" height="136.5173107958904" width="395.52"><g><svg viewBox="0 0 395.52 136.5173107958904" height="136.5173107958904" width="395.52"><g><svg viewBox="0 0 395.52 136.5173107958904" height="136.5173107958904" width="395.52"><g id="textblocktransform"><svg viewBox="0 0 395.52 136.5173107958904" height="136.5173107958904" width="395.52" id="textblock"><g><rect width="395.52" height="120.81250123000135" fill="none" stroke-width="8.962371322224001" stroke="#0080ff" data-fill-palette-color="none" data-stroke-palette-color="tertiary"></rect><rect width="395.52" height="45.04545834058884" y="120.81250123000135" fill="#0080ff" data-fill-palette-color="tertiary"></rect></g><g><svg viewBox="0 0 395.52 119.81250123000135" height="119.81250123000135" width="395.52"><g transform="matrix(1,0,0,1,23.461705032,23.461705032)"><svg width="348.596589936" viewBox="1.05 -34.9 222.13 46.45" height="72.88909116600135" data-palette-color="#0080ff"><path d="M8.05 0L1.05 0 1.05-1.1 2.05-1.4Q3-1.7 3.35-2.38 3.7-3.05 3.7-4.15L3.7-4.15 3.7-28.9Q3.7-29.9 3.45-30.53 3.2-31.15 2.2-31.5L2.2-31.5 1.05-31.95 1.05-33.05 10.6-33.05 20-8.6 28.85-33.05 38.6-33.05 38.6-31.95 37.8-31.7Q36.85-31.4 36.5-30.78 36.15-30.15 36.15-29.15L36.15-29.15Q36.1-26.25 36.1-23.38 36.1-20.5 36.1-17.55L36.1-17.55 36.1-15.5Q36.1-12.6 36.1-9.7 36.1-6.8 36.15-3.95L36.15-3.95Q36.15-2.9 36.4-2.35 36.65-1.8 37.6-1.45L37.6-1.45 38.6-1.1 38.6 0 26.45 0 26.45-1.1 27.55-1.45Q28.5-1.8 28.73-2.38 28.95-2.95 28.95-3.95L28.95-3.95 28.95-14.8 29.05-28.2 18.85 0 16.05 0 5.3-27.9 5.5-16.5 5.5-4.1Q5.5-3 5.8-2.35 6.1-1.7 7.05-1.45L7.05-1.45 8.05-1.1 8.05 0ZM53.3 0.7L53.3 0.7Q49.6 0.7 46.82-0.85 44.05-2.4 42.52-5.25 41-8.1 41-12.05L41-12.05Q41-16 42.62-18.85 44.25-21.7 47.02-23.23 49.8-24.75 53.3-24.75L53.3-24.75Q56.8-24.75 59.57-23.23 62.35-21.7 63.97-18.88 65.6-16.05 65.6-12.05L65.6-12.05Q65.6-8.1 64.07-5.23 62.55-2.35 59.8-0.83 57.05 0.7 53.3 0.7ZM53.3-0.7L53.3-0.7Q55.1-0.7 56.22-1.68 57.35-2.65 57.85-5.1 58.35-7.55 58.35-11.95L58.35-11.95Q58.35-16.4 57.85-18.88 57.35-21.35 56.22-22.33 55.1-23.3 53.3-23.3L53.3-23.3Q51.5-23.3 50.4-22.33 49.3-21.35 48.77-18.88 48.25-16.4 48.25-11.95L48.25-11.95Q48.25-7.55 48.77-5.1 49.3-2.65 50.4-1.68 51.5-0.7 53.3-0.7ZM77.3 0.7L77.3 0.7Q74.19 0.7 72.42-0.83 70.64-2.35 70.64-5.8L70.64-5.8Q70.64-7 70.67-8.08 70.69-9.15 70.69-10.6L70.69-10.6 70.69-22.45 67.14-22.45 67.14-23.55 68.5-23.75Q69.94-24 70.97-24.65 72-25.3 72.84-26.45L72.84-26.45 76.09-30.95 77.59-30.95 77.44-24 83.14-24 83.14-22.45 77.39-22.45 77.39-5.4Q77.39-3.6 78.17-2.7 78.94-1.8 80.09-1.8L80.09-1.8Q81.09-1.8 81.89-2.27 82.69-2.75 83.5-3.55L83.5-3.55 84.14-2.8Q83.19-1.15 81.5-0.23 79.8 0.7 77.3 0.7ZM91.59-27.5L91.59-27.5Q89.94-27.5 88.79-28.55 87.64-29.6 87.64-31.2L87.64-31.2Q87.64-32.85 88.79-33.88 89.94-34.9 91.59-34.9L91.59-34.9Q93.24-34.9 94.39-33.88 95.54-32.85 95.54-31.2L95.54-31.2Q95.54-29.6 94.39-28.55 93.24-27.5 91.59-27.5ZM97.29 0L85.84 0 85.84-0.95 86.59-1.15Q87.59-1.45 87.94-2.05 88.29-2.65 88.34-3.65L88.34-3.65 88.34-12.85Q88.34-14.4 88.34-15.73 88.34-17.05 88.29-18.45L88.29-18.45Q88.29-19.45 87.92-20.03 87.54-20.6 86.54-20.8L86.54-20.8 85.84-20.95 85.84-21.85 94.59-24.75 95.19-24.2 95.04-17.1 95.04-3.6Q95.04-2.6 95.42-2 95.79-1.4 96.74-1.1L96.74-1.1 97.29-0.95 97.29 0ZM125.94 11.55L114.09 11.55 114.09 10.6 115.09 10.35Q117.04 9.8 117.04 7.85L117.04 7.85 117.04-1.8Q115.59-0.65 113.72 0.03 111.84 0.7 109.54 0.7L109.54 0.7Q105.24 0.7 102.47-2.5 99.69-5.7 99.69-11.75L99.69-11.75Q99.69-15.9 101.09-18.8 102.49-21.7 104.94-23.23 107.39-24.75 110.59-24.75L110.59-24.75Q112.74-24.75 114.59-24.1 116.44-23.45 117.94-22.3L117.94-22.3 123.09-24.75 123.79-24.25 123.64-17.5 123.64 8Q123.64 9.95 125.39 10.45L125.39 10.45 125.94 10.6 125.94 11.55ZM112.64-1.7L112.64-1.7Q114.69-1.7 116.89-3.25L116.89-3.25 116.89-21.25Q115.89-21.8 114.89-22.1 113.89-22.4 112.74-22.4L112.74-22.4Q109.99-22.4 108.42-19.95 106.84-17.5 106.84-11.85L106.84-11.85Q106.84-6.35 108.37-4.03 109.89-1.7 112.64-1.7ZM136.44 0.7L136.44 0.7Q134.49 0.7 132.89-0.03 131.29-0.75 130.36-2.43 129.44-4.1 129.49-6.85L129.49-6.85 129.64-19.4Q129.64-20.5 129.29-21 128.94-21.5 128.04-21.7L128.04-21.7 127.44-21.9 127.44-22.8 135.99-24.45 136.54-23.9 136.29-16.85 136.29-5.5Q136.29-3.8 137.21-3.03 138.14-2.25 139.54-2.25L139.54-2.25Q140.99-2.25 142.16-2.68 143.34-3.1 144.59-3.95L144.59-3.95 144.74-19.35Q144.74-20.5 144.41-20.95 144.09-21.4 143.19-21.65L143.19-21.65 142.64-21.8 142.64-22.7 150.99-24.45 151.54-23.9 151.39-16.85 151.39-3.75Q151.39-2.7 151.66-2.08 151.94-1.45 152.89-1.15L152.89-1.15 153.54-0.95 153.54 0 145.09 0.5 144.64-2.65Q142.94-1.2 140.94-0.25 138.94 0.7 136.44 0.7ZM168.09 0.7L168.09 0.7Q164.39 0.7 161.61-0.85 158.84-2.4 157.31-5.25 155.79-8.1 155.79-12.05L155.79-12.05Q155.79-16 157.41-18.85 159.04-21.7 161.81-23.23 164.59-24.75 168.09-24.75L168.09-24.75Q171.59-24.75 174.36-23.23 177.14-21.7 178.76-18.88 180.39-16.05 180.39-12.05L180.39-12.05Q180.39-8.1 178.86-5.23 177.34-2.35 174.59-0.83 171.84 0.7 168.09 0.7ZM168.09-0.7L168.09-0.7Q169.89-0.7 171.01-1.68 172.14-2.65 172.64-5.1 173.14-7.55 173.14-11.95L173.14-11.95Q173.14-16.4 172.64-18.88 172.14-21.35 171.01-22.33 169.89-23.3 168.09-23.3L168.09-23.3Q166.29-23.3 165.19-22.33 164.09-21.35 163.56-18.88 163.04-16.4 163.04-11.95L163.04-11.95Q163.04-7.55 163.56-5.1 164.09-2.65 165.19-1.68 166.29-0.7 168.09-0.7ZM192.08 0.7L192.08 0.7Q188.98 0.7 187.21-0.83 185.43-2.35 185.43-5.8L185.43-5.8Q185.43-7 185.46-8.08 185.48-9.15 185.48-10.6L185.48-10.6 185.48-22.45 181.93-22.45 181.93-23.55 183.28-23.75Q184.73-24 185.76-24.65 186.78-25.3 187.63-26.45L187.63-26.45 190.88-30.95 192.38-30.95 192.23-24 197.93-24 197.93-22.45 192.18-22.45 192.18-5.4Q192.18-3.6 192.96-2.7 193.73-1.8 194.88-1.8L194.88-1.8Q195.88-1.8 196.68-2.27 197.48-2.75 198.28-3.55L198.28-3.55 198.93-2.8Q197.98-1.15 196.28-0.23 194.58 0.7 192.08 0.7ZM213.08-24.75L213.08-24.75Q216.23-24.75 218.48-23.45 220.73-22.15 221.96-19.88 223.18-17.6 223.18-14.65L223.18-14.65Q223.18-14 223.13-13.43 223.08-12.85 222.93-12.35L222.93-12.35 207.88-12.35Q207.93-7.2 209.81-4.95 211.68-2.7 215.28-2.7L215.28-2.7Q217.78-2.7 219.33-3.53 220.88-4.35 222.18-5.85L222.18-5.85 222.98-5.1Q221.48-2.35 218.91-0.83 216.33 0.7 212.78 0.7L212.78 0.7Q209.23 0.7 206.53-0.8 203.83-2.3 202.31-5.13 200.78-7.95 200.78-11.9L200.78-11.9Q200.78-16 202.56-18.85 204.33-21.7 207.16-23.23 209.98-24.75 213.08-24.75ZM212.83-23.3L212.83-23.3Q211.38-23.3 210.31-22.48 209.23-21.65 208.61-19.58 207.98-17.5 207.88-13.75L207.88-13.75 216.83-13.75Q217.38-18.8 216.43-21.05 215.48-23.3 212.83-23.3Z" opacity="1" transform="matrix(1,0,0,1,0,0)" fill="#0080ff" class="wordmark-text-0" data-fill-palette-color="primary" id="text-0"></path></svg></g></svg></g><g transform="matrix(1,0,0,1,75.54432,119.81250123000135)"><svg viewBox="0 0 244.43135999999998 16.70480956588908" height="16.70480956588908" width="244.43135999999998"><g transform="matrix(1,0,0,1,20,3.2)"><svg width="204.43135999999998" viewBox="-0.2 -40.16 1106.1100000000001 55.76" height="10.304809565889077" data-palette-color="#ffffff"><path d="M13.92-33.45L13.48-33.45Q10.55-33.45 10.55-31.2L10.55-31.2Q10.55-30.79 10.71-30.32 10.86-29.86 10.99-29.35L10.99-29.35 20.34-6.84Q20.46-6.59 20.73-6.59 21-6.59 21.17-6.86L21.17-6.86 26.56-19.56 21.8-31.05Q21.36-32.15 18.14-33.15L18.14-33.15Q17.19-33.45 16.91-33.45 16.63-33.45 16.63-33.64L16.63-33.64 16.63-34.23Q16.63-34.42 16.82-34.42L16.82-34.42 39.18-34.42Q39.38-34.42 39.38-34.23L39.38-34.23 39.38-33.64Q39.38-33.45 39.18-33.45L39.18-33.45 38.28-33.45Q35.94-33.45 34.72-31.15L34.72-31.15Q34.3-30.37 33.86-29.32L33.86-29.32 30.69-21.88 36.94-6.84Q37.06-6.59 37.33-6.59 37.6-6.59 37.77-6.86L37.77-6.86 48.1-31.15Q48.39-31.84 48.39-32.37L48.39-32.37Q48.39-33.45 45.58-33.45L45.58-33.45 44.07-33.45Q43.87-33.45 43.87-33.64L43.87-33.64 43.87-34.23Q43.87-34.42 44.07-34.42L44.07-34.42 54.93-34.42Q55.13-34.42 55.13-34.23L55.13-34.23 55.13-33.64Q55.13-33.45 54.93-33.45L54.93-33.45 53.78-33.45Q52.71-33.45 52.16-32.7 51.61-31.96 50.61-29.66L50.61-29.66 38.06-0.2Q37.79 0.39 37.5 0.52 37.21 0.66 36.65 0.66L36.65 0.66 35.5 0.66Q34.91 0.66 34.72 0.12L34.72 0.12 28.13-15.84 21.46-0.2Q21.19 0.39 20.9 0.52 20.61 0.66 20.04 0.66L20.04 0.66 18.9 0.66Q18.31 0.66 18.14 0.1L18.14 0.1 5.2-31.05Q4.81-32.01 2.78-32.73 0.76-33.45 0.28-33.45-0.2-33.45-0.2-33.64L-0.2-33.64-0.2-34.23Q-0.2-34.42 0-34.42L0-34.42 13.92-34.42Q14.11-34.42 14.11-34.23L14.11-34.23 14.11-33.64Q14.11-33.45 13.92-33.45L13.92-33.45ZM31.79-32.3L31.79-32.3Q31.79-33.33 29.69-33.42L29.69-33.42Q27.56-33.3 27.25-31.93L27.25-31.93Q27.15-31.59 27.15-31.19 27.15-30.79 27.31-30.32 27.47-29.86 27.59-29.35L27.59-29.35 29.13-25.61 31.49-31.15Q31.79-31.84 31.79-32.3ZM75.02-12.87L60.86-12.87Q60.45-12.87 60.45-11.08L60.45-11.08Q60.45-7.3 62.69-4.74 64.94-2.17 68.27-2.17 71.6-2.17 74.68-5.05L74.68-5.05Q74.73-5.1 74.8-5.1L74.8-5.1 74.92-5.1Q75.07-5.1 75.21-4.87 75.34-4.64 75.46-4.57L75.46-4.57Q72.63-1.12 68.8 0.2L68.8 0.2Q67.48 0.66 65.82 0.66 64.16 0.66 62.45-0.26 60.74-1.17 59.52-2.66L59.52-2.66Q56.93-5.76 56.93-10.39 56.93-15.01 59.75-18.82 62.57-22.63 67.5-22.63L67.5-22.63Q71.04-22.63 73.29-19.47 75.53-16.31 75.53-13.92L75.53-13.92Q75.53-12.87 75.02-12.87L75.02-12.87ZM61.13-15.5L61.13-15.21Q61.13-14.75 61.57-14.75L61.57-14.75 70.77-14.75Q71.41-14.75 71.41-15.5L71.41-15.5Q71.41-17.26 69.83-19.1 68.26-20.95 66.38-20.95L66.38-20.95Q64.55-20.95 63.05-19.29 61.55-17.63 61.13-15.5L61.13-15.5ZM108.15-4.03Q108.15-3.39 108.74-3.02 109.34-2.64 110.12-2.64 110.91-2.64 111.43-3.04 111.96-3.44 112.15-3.44 112.35-3.44 112.35-2.92 112.35-2.39 111.86-2.03L111.86-2.03Q108.2 0.66 106.9 0.66L106.9 0.66Q105.34 0.66 104.36-2.59L104.36-2.59Q104.29-2.83 104.24-2.81L104.24-2.81Q101.21-0.54 100.43-0.07L100.43-0.07Q98.43 1.07 96.42 0.29 94.4-0.49 93.5-2.29L93.5-2.29Q93.06-3.22 93.06-4.27L93.06-4.27Q93.06-6.35 94.6-7.57 96.14-8.79 100.46-9.91L100.46-9.91Q101.92-10.3 103.07-10.91 104.22-11.52 104.28-11.69 104.34-11.87 104.34-12.01L104.34-12.01 104.34-16.7Q104.34-19.46 102.19-20.58L102.19-20.58Q101.48-20.95 100.49-20.95 99.5-20.95 98.49-20.17 97.48-19.38 97.48-17.94L97.48-17.94 97.6-16.99Q97.45-16.7 95.84-16.02 94.23-15.33 93.99-15.28L93.99-15.28Q93.6-15.28 93.6-16.22 93.6-17.16 94.16-18.31 94.72-19.46 95.74-20.41L95.74-20.41Q98.14-22.63 101.21-22.63 104.29-22.63 106.22-20.94 108.15-19.24 108.15-16.89L108.15-16.89 108.15-4.03ZM96.89-4.74Q96.89-3.56 97.8-2.7 98.7-1.83 99.86-1.83 101.02-1.83 102.68-2.82 104.34-3.81 104.34-4.86L104.34-4.86 104.34-9.81Q104.34-10.08 104.22-10.08 104.09-10.08 104.05-10.06L104.05-10.06 98.38-7.42Q97.5-6.79 97.2-6.35 96.89-5.91 96.89-4.74ZM129.51-17.5L129.51-17.5Q129.21-17.55 128.65-17.82L128.65-17.82Q126.63-18.75 125.48-18.75 124.33-18.75 123.07-17.32 121.82-15.89 121.82-14.75L121.82-14.75 121.82-3.71Q121.82-1.88 123.94-1.27L123.94-1.27Q124.87-1.03 125.67-0.92 126.48-0.81 126.71-0.71 126.94-0.61 126.94-0.33 126.94-0.05 126.7 0L126.7 0 114.47 0Q114.22-0.05 114.22-0.34L114.22-0.34Q114.22-0.78 115.37-0.93L115.37-0.93Q118.01-1.32 118.01-3.71L118.01-3.71 118.01-16.63Q118.01-17.65 116.88-18.04L116.88-18.04Q116.4-18.21 115.83-18.32 115.27-18.43 114.94-18.53 114.61-18.63 114.53-18.71 114.44-18.8 114.44-19.08 114.44-19.36 114.81-19.56L114.81-19.56 121.03-22.49Q121.33-22.63 121.4-22.63L121.4-22.63Q121.82-22.63 121.82-22.05L121.82-22.05 121.82-18.09Q121.82-17.8 121.96-17.8L121.96-17.8Q122.16-17.8 122.96-18.95L122.96-18.95Q125.28-22.19 126.8-22.19L126.8-22.19Q127.65-22.19 129.42-21.51 131.19-20.83 131.19-20.36L131.19-20.36Q131.19-19.8 130.63-18.65 130.07-17.5 129.51-17.5ZM150.99-12.87L136.83-12.87Q136.41-12.87 136.41-11.08L136.41-11.08Q136.41-7.3 138.66-4.74 140.91-2.17 144.24-2.17 147.57-2.17 150.65-5.05L150.65-5.05Q150.7-5.1 150.77-5.1L150.77-5.1 150.89-5.1Q151.04-5.1 151.17-4.87 151.31-4.64 151.43-4.57L151.43-4.57Q148.6-1.12 144.76 0.2L144.76 0.2Q143.44 0.66 141.78 0.66 140.12 0.66 138.42-0.26 136.71-1.17 135.49-2.66L135.49-2.66Q132.9-5.76 132.9-10.39 132.9-15.01 135.72-18.82 138.54-22.63 143.47-22.63L143.47-22.63Q147.01-22.63 149.26-19.47 151.5-16.31 151.5-13.92L151.5-13.92Q151.5-12.87 150.99-12.87L150.99-12.87ZM137.1-15.5L137.1-15.21Q137.1-14.75 137.54-14.75L137.54-14.75 146.74-14.75Q147.38-14.75 147.38-15.5L147.38-15.5Q147.38-17.26 145.8-19.1 144.23-20.95 142.35-20.95L142.35-20.95Q140.51-20.95 139.01-19.29 137.51-17.63 137.1-15.5L137.1-15.5ZM182.97-19.95L181.11-19.95Q181.01-21.7 180.72-23.66L180.72-23.66Q180.72-23.66 180.26-26.86L180.26-26.86Q179.52-31.59 179.52-32.4 179.52-33.2 180.35-33.81 181.18-34.42 182.14-34.42 183.09-34.42 183.86-33.81 184.63-33.2 184.63-32.41 184.63-31.62 184.43-30.1 184.24-28.59 183.97-26.82 183.7-25.05 183.42-23.23 183.14-21.41 182.97-19.95L182.97-19.95ZM174.01-19.92L172.17-19.92Q172.08-21.51 171.32-26.54 170.56-31.57 170.56-32.37 170.56-33.18 171.37-33.8 172.17-34.42 173.16-34.42 174.15-34.42 174.91-33.8 175.67-33.18 175.67-32.41 175.67-31.64 175.47-30.13 175.28-28.61 175.01-26.83 174.74-25.05 174.46-23.22 174.18-21.39 174.01-19.92L174.01-19.92ZM199.05-19.75L208.62-19.75Q211.89-19.75 211.89-22.95L211.89-22.95Q211.89-23.14 212.09-23.14L212.09-23.14 212.68-23.14Q212.87-23.14 212.87-22.95L212.87-22.95 212.87-13.87Q212.87-13.67 212.68-13.67L212.68-13.67 212.09-13.67Q211.89-13.67 211.89-13.87L211.89-13.87Q211.89-16.11 210.62-16.97L210.62-16.97Q209.94-17.43 208.67-17.43L208.67-17.43 199.05-17.43Q198.47-17.43 198.47-16.77L198.47-16.77 198.47-4.22Q198.47-2.56 200.46-1.77 202.45-0.98 202.97-0.98 203.5-0.98 203.5-0.78L203.5-0.78 203.5-0.2Q203.5 0 203.3 0L203.3 0 189.97 0Q189.77 0 189.77-0.2L189.77-0.2 189.77-0.78Q189.77-0.98 190.19-0.98 190.61-0.98 191.48-1.37 192.36-1.76 193.03-2.53 193.71-3.3 193.71-4.39L193.71-4.39 193.71-30.76Q193.71-32.35 192.02-33.03L192.02-33.03Q191.04-33.45 190.09-33.45L190.09-33.45 189.99-33.45Q189.8-33.45 189.8-33.64L189.8-33.64 189.8-34.23Q189.8-34.42 189.99-34.42L189.99-34.42 213.02-34.42Q213.31-34.38 213.46-34.29 213.6-34.2 213.6-33.86L213.6-33.86 213.6-27.95Q213.6-27.66 213.52-27.59 213.43-27.51 213.21-27.51L213.21-27.51 212.92-27.51Q212.87-27.54 212.59-28.85 212.31-30.15 211.72-30.86L211.72-30.86Q210.72-31.93 209.45-32.06L209.45-32.06Q208.94-32.1 208.21-32.1L208.21-32.1 198.95-32.1Q198.47-32.1 198.47-31.62L198.47-31.62 198.47-20.31Q198.47-19.75 199.05-19.75L199.05-19.75ZM234.57 0.05L234.57-2.15Q234.45-2.56 234.25-2.43 234.06-2.29 232.67-1.59L232.67-1.59Q228.1 0.68 225.05 0.68 222 0.68 220.66-1.27L220.66-1.27Q220.17-2 220.17-3.08L220.17-3.08 220.17-17.97Q220.09-18.68 219.53-19.19L219.53-19.19Q218.78-19.82 217.96-19.87 217.14-19.92 217.14-20.37 217.14-20.83 217.53-20.92L217.53-20.92 223.12-22.53Q223.42-22.63 223.7-22.63 223.98-22.63 223.98-22.22L223.98-22.22 223.98-5.83Q223.98-4.13 225.49-3.2 227-2.27 229.36-2.27 231.72-2.27 233.6-3.71L233.6-3.71Q234.18-4.17 234.57-4.74L234.57-4.74 234.57-17.97Q234.5-18.68 233.94-19.19L233.94-19.19Q233.18-19.82 232.36-19.87 231.54-19.92 231.54-20.37 231.54-20.83 231.94-20.92L231.94-20.92 237.53-22.53Q237.82-22.63 238.1-22.63 238.38-22.63 238.38-22.14L238.38-22.14 238.38-4.81Q238.5-3.74 238.99-3.27 239.48-2.81 240.58-2.81L240.58-2.81 241.99-2.91Q242.14-2.91 242.14-2.62 242.14-2.34 241.77-2.17L241.77-2.17 235.28 0.51Q234.99 0.66 234.78 0.66 234.57 0.66 234.57 0.05L234.57 0.05ZM263.4-12.87L249.24-12.87Q248.83-12.87 248.83-11.08L248.83-11.08Q248.83-7.3 251.07-4.74 253.32-2.17 256.65-2.17 259.98-2.17 263.06-5.05L263.06-5.05Q263.11-5.1 263.18-5.1L263.18-5.1 263.31-5.1Q263.45-5.1 263.59-4.87 263.72-4.64 263.84-4.57L263.84-4.57Q261.01-1.12 257.18 0.2L257.18 0.2Q255.86 0.66 254.2 0.66 252.54 0.66 250.83-0.26 249.12-1.17 247.9-2.66L247.9-2.66Q245.31-5.76 245.31-10.39 245.31-15.01 248.13-18.82 250.95-22.63 255.88-22.63L255.88-22.63Q259.42-22.63 261.67-19.47 263.92-16.31 263.92-13.92L263.92-13.92Q263.92-12.87 263.4-12.87L263.4-12.87ZM249.51-15.5L249.51-15.21Q249.51-14.75 249.95-14.75L249.95-14.75 259.15-14.75Q259.79-14.75 259.79-15.5L259.79-15.5Q259.79-17.26 258.21-19.1 256.64-20.95 254.76-20.95L254.76-20.95Q252.93-20.95 251.43-19.29 249.93-17.63 249.51-15.5L249.51-15.5ZM277.02-0.93L277.02-0.93Q278.17-0.78 278.17-0.34L278.17-0.34Q278.17-0.05 277.93 0L277.93 0 267.04 0Q266.79-0.05 266.79-0.34L266.79-0.34Q266.79-0.78 267.94-0.93L267.94-0.93Q270.58-1.32 270.58-3.71L270.58-3.71 270.58-34.16Q270.58-35.18 269.45-35.57L269.45-35.57Q268.97-35.74 268.41-35.85 267.84-35.96 267.51-36.06 267.18-36.16 267.1-36.24 267.01-36.33 267.01-36.61 267.01-36.89 267.38-37.08L267.38-37.08 273.61-40.01Q273.9-40.16 273.97-40.16L273.97-40.16Q274.39-40.16 274.39-39.58L274.39-39.58 274.39-3.71Q274.39-1.32 277.02-0.93ZM291.62 0L280.73 0Q280.49-0.05 280.49-0.34L280.49-0.34Q280.49-0.78 281.64-0.93L281.64-0.93Q284.27-1.32 284.27-3.71L284.27-3.71 284.27-16.63Q284.27-17.65 283.15-18.04L283.15-18.04Q282.66-18.21 282.1-18.32 281.54-18.43 281.21-18.53 280.88-18.63 280.79-18.71 280.71-18.8 280.71-19.08 280.71-19.36 281.07-19.56L281.07-19.56 287.3-22.49Q287.59-22.63 287.67-22.63L287.67-22.63Q288.08-22.63 288.08-22.05L288.08-22.05 288.08-3.71Q288.08-1.32 290.72-0.93L290.72-0.93Q291.86-0.78 291.86-0.42 291.86-0.05 291.62 0L291.62 0ZM285.82-29.49Q284.81-29.49 284.04-30.13 283.27-30.76 283.27-31.9 283.27-33.03 284-33.69 284.74-34.35 285.75-34.35 286.76-34.35 287.46-33.57 288.15-32.79 288.15-31.88 288.15-30.98 287.49-30.24 286.84-29.49 285.82-29.49ZM312.71-7.69L312.71-7.69 312.66-12.84Q312.66-15.99 312.13-17.26 311.59-18.53 310.76-19.18 309.93-19.82 308.52-19.82 307.12-19.82 302.58-17.63L302.58-17.63Q301.97-17.26 301.95-16.94L301.95-16.94 301.95-3.81Q301.95-1.34 304.58-0.98L304.58-0.98Q305.73-0.81 305.73-0.43 305.73-0.05 305.49 0L305.49 0 294.6 0Q294.35-0.05 294.35-0.34L294.35-0.34Q294.35-0.81 295.5-0.98L295.5-0.98Q298.14-1.34 298.14-3.81L298.14-3.81 298.14-17.82Q298.14-18.85 297.01-19.24L297.01-19.24Q296.53-19.41 295.96-19.52 295.4-19.63 295.07-19.73 294.74-19.82 294.66-19.91 294.57-20 294.57-20.28 294.57-20.56 294.94-20.75L294.94-20.75 301.16-23.68Q301.46-23.83 301.53-23.83L301.53-23.83Q301.95-23.83 301.95-23.24L301.95-23.24 301.95-19.43Q302.02-19.19 302.14-19.19L302.14-19.19Q302.29-19.19 303.19-19.63L303.19-19.63Q305.29-20.68 307.41-21.66 309.54-22.63 310.93-22.63L310.93-22.63Q316.57-22.63 316.57-12.35L316.57-12.35 316.35-5.22 316.35-3.81Q316.35-1.9 318.25-1.32L318.25-1.32Q319.06-1.05 319.8-0.94 320.55-0.83 320.78-0.73 321.01-0.63 321.01-0.34 321.01-0.05 320.77 0L320.77 0 309 0Q308.76-0.05 308.76-0.34L308.76-0.34Q308.76-0.81 309.9-0.98L309.9-0.98Q312.52-1.34 312.52-4L312.52-4Q312.71-5.22 312.71-7.69ZM341.49-20.29L341.49-20.29Q341.49-20.29 348.04-20.58L348.04-20.58Q348.6-20.58 348.77-20.46 348.94-20.34 349.13-19.62 349.33-18.9 349.33-18.26 349.33-17.63 349.21-17.53 349.09-17.43 348.72-17.43L348.72-17.43 343.3-17.43Q343.45-17.16 343.62-16.87 343.79-16.58 344.06-15.89 344.33-15.21 344.33-13.78 344.33-12.35 343.63-10.8 342.93-9.25 341.59-8.06L341.59-8.06Q338.61-5.37 333.88-5.37L333.88-5.37Q332.63-5.37 331.14-5.83L331.14-5.83Q330.78-5.44 330.17-5.11 329.55-4.79 328.97-4.44L328.97-4.44Q327.5-3.61 327.5-2.78L327.5-2.78Q327.5-0.71 334.39-0.66 341.27-0.61 343.43-0.21 345.59 0.2 346.79 1.39L346.79 1.39Q348.67 3.27 348.67 5.69L348.67 5.69Q348.67 7.76 346.89 9.96L346.89 9.96Q343.79 13.84 337.42 15.14L337.42 15.14Q335.15 15.6 332.61 15.6L332.61 15.6Q327.99 15.6 325.6 13.93 323.21 12.26 323.21 9.89L323.21 9.89Q323.21 8.59 323.82 7.75 324.43 6.91 325.37 6.16 326.31 5.42 327.43 4.6 328.55 3.78 329.58 2.51L329.58 2.51Q327.24 2.32 325.56 1.03 323.89-0.27 323.89-1.51 323.89-2.76 324.55-3.36 325.21-3.96 326.16-4.38 327.11-4.81 328.16-5.18 329.21-5.54 329.99-6.13L329.99-6.13Q327.26-7.2 325.77-9.09 324.28-10.99 324.28-13.23L324.28-13.23Q324.28-17.41 327.32-20.04 330.36-22.68 334.66-22.68 338.95-22.68 341.49-20.29ZM328.22 5.18Q327.65 5.74 327.28 6.37 326.92 7.01 326.92 7.97 326.92 8.94 327.61 10 328.31 11.06 329.51 11.91L329.51 11.91Q332.14 13.87 335.85 13.87 339.56 13.87 342.58 11.71 345.59 9.55 345.59 6.97 345.59 4.39 343.1 3.52L343.1 3.52Q341.93 3.13 337.07 3.03 332.22 2.93 330.78 2.76L330.78 2.76Q330.14 3.49 329.47 4.05 328.8 4.61 328.22 5.18ZM340.32-13.79Q340.32-17.24 338.6-19.4 336.88-21.56 334.05-21.56L334.05-21.56Q330.38-21.56 328.87-18.12L328.87-18.12Q328.29-16.8 328.29-15.09L328.29-15.09Q328.29-11.6 329.73-9.28L329.73-9.28Q331.48-6.49 334.34-6.49 337.2-6.49 338.76-8.42 340.32-10.35 340.32-13.79ZM369.1-4.47L369.1-30.52Q369.1-33.45 365.73-33.45L365.73-33.45Q365.19-33.45 365.19-33.64L365.19-33.64 365.19-34.23Q365.19-34.42 365.39-34.42L365.39-34.42 377.62-34.42Q377.82-34.42 377.82-34.23L377.82-34.23 377.82-33.64Q377.82-33.45 376.74-33.45 375.67-33.45 374.76-32.76 373.86-32.08 373.86-29.96L373.86-29.96 373.86-3.91Q373.86-0.98 377.25-0.98L377.25-0.98Q377.77-0.98 377.77-0.78L377.77-0.78 377.77-0.2Q377.77 0 377.57 0L377.57 0 365.34 0Q365.15 0 365.15-0.2L365.15-0.2 365.15-0.78Q365.15-0.98 366.22-0.98 367.29-0.98 368.2-1.66 369.1-2.34 369.1-4.47L369.1-4.47ZM399.64-7.69L399.64-7.69 399.59-12.84Q399.59-15.99 399.05-17.26 398.52-18.53 397.69-19.18 396.86-19.82 395.45-19.82 394.05-19.82 389.51-17.63L389.51-17.63Q388.9-17.26 388.87-16.94L388.87-16.94 388.87-3.81Q388.87-1.34 391.51-0.98L391.51-0.98Q392.66-0.81 392.66-0.43 392.66-0.05 392.41 0L392.41 0 381.52 0Q381.28-0.05 381.28-0.34L381.28-0.34Q381.28-0.81 382.43-0.98L382.43-0.98Q385.06-1.34 385.06-3.81L385.06-3.81 385.06-17.82Q385.06-18.85 383.94-19.24L383.94-19.24Q383.45-19.41 382.89-19.52 382.33-19.63 382-19.73 381.67-19.82 381.59-19.91 381.5-20 381.5-20.28 381.5-20.56 381.87-20.75L381.87-20.75 388.09-23.68Q388.39-23.83 388.46-23.83L388.46-23.83Q388.87-23.83 388.87-23.24L388.87-23.24 388.87-19.43Q388.95-19.19 389.07-19.19L389.07-19.19Q389.22-19.19 390.12-19.63L390.12-19.63Q392.22-20.68 394.34-21.66 396.47-22.63 397.86-22.63L397.86-22.63Q403.5-22.63 403.5-12.35L403.5-12.35 403.28-5.22 403.28-3.81Q403.28-1.9 405.18-1.32L405.18-1.32Q405.99-1.05 406.73-0.94 407.48-0.83 407.71-0.73 407.94-0.63 407.94-0.34 407.94-0.05 407.7 0L407.7 0 395.93 0Q395.69-0.05 395.69-0.34L395.69-0.34Q395.69-0.81 396.83-0.98L396.83-0.98Q399.44-1.34 399.44-4L399.44-4Q399.64-5.22 399.64-7.69ZM421.98-18.95L421.98-16.7Q421.98-16.16 421.57-16.16 421.17-16.16 420.95-16.75L420.95-16.75Q420.37-18.36 419.21-19.6 418.05-20.85 416.34-20.85L416.34-20.85Q414.09-20.85 413.31-18.6L413.31-18.6Q413.07-17.85 413.07-17.04 413.07-16.24 414.09-15.25 415.12-14.26 417.46-12.89 419.8-11.52 420.88-10.57L420.88-10.57Q423.32-8.4 423.32-5.54 423.32-2.69 421.22-1.01 419.12 0.66 416.34 0.66L416.34 0.66Q414.85 0.66 413.64 0.26 412.43-0.15 412.25-0.15 412.06-0.15 411.66 0.26 411.26 0.66 411.01 0.66L411.01 0.66 410.6 0.66Q410.45 0.66 410.23-1.98 410.01-4.61 410.01-5.1 410.01-5.59 410.1-5.64 410.18-5.69 410.38-5.69 410.58-5.69 410.71-5.57 410.84-5.44 410.94-5.26 411.04-5.08 411.1-4.88 411.16-4.69 411.41-4.15L411.41-4.15Q413.07-0.61 416.53-0.61L416.53-0.61Q418.07-0.61 419-1.75 419.93-2.88 419.93-4.27 419.93-5.66 419.19-6.62 418.46-7.57 417.37-8.35 416.29-9.13 415.02-9.86L415.02-9.86Q410.09-12.74 410.09-16.24L410.09-16.24Q410.09-18.85 412.33-20.74 414.58-22.63 416.95-22.63 419.32-22.63 420.45-22.12 421.59-21.61 421.78-21.25 421.98-20.9 421.98-18.95L421.98-18.95ZM445.24-2.56L445.24-2.56Q441.87 0.66 437.67 0.66L437.67 0.66Q436.16 0.66 433.55 0.1L433.55 0.1Q433.13 0.1 433.09 0.39 433.06 0.68 433.03 1L433.03 1 433.03 11.43Q433.03 13.26 435.16 13.87L435.16 13.87Q436.09 14.11 436.89 14.22 437.7 14.33 437.93 14.43 438.16 14.53 438.16 14.81 438.16 15.09 437.92 15.14L437.92 15.14 425.68 15.14Q425.44 15.09 425.44 14.79L425.44 14.79Q425.44 14.36 426.59 14.21L426.59 14.21Q429.22 13.82 429.22 11.43L429.22 11.43 429.22-17.85Q429.22-18.87 428.1-19.26L428.1-19.26Q427.61-19.43 427.05-19.54 426.49-19.65 426.16-19.75 425.83-19.85 425.75-19.93 425.66-20.02 425.66-20.3 425.66-20.58 426.03-20.78L426.03-20.78 432.25-23.75Q432.45-23.85 432.64-23.85L432.64-23.85Q433.03-23.85 433.03-23.27L433.03-23.27 433.03-20.17Q433.03-19.9 433.31-19.9 433.6-19.9 434.67-20.61L434.67-20.61Q437.77-22.61 441.11-22.61L441.11-22.61Q443.46-22.61 445.41-20.7L445.41-20.7Q447.97-18.21 448.83-13.77L448.83-13.77Q449.07-12.5 449.07-11.07 449.07-9.64 448.61-8.06L448.61-8.06Q447.68-4.91 445.24-2.56ZM438.26-20.07L438.26-20.07Q434.94-20.07 433.03-18.16L433.03-18.16 433.03-4.44Q433.03-3.22 433.45-2.86L433.45-2.86Q434.52-1.93 436.74-1.42L436.74-1.42Q441.14-0.42 443.58-3.52L443.58-3.52Q445.31-5.74 445.31-8.89L445.31-8.89Q445.31-15.01 442.56-18.07L442.56-18.07Q440.89-19.92 438.26-20.07ZM464.35 0L453.47 0Q453.22-0.05 453.22-0.34L453.22-0.34Q453.22-0.78 454.37-0.93L454.37-0.93Q457.01-1.32 457.01-3.71L457.01-3.71 457.01-16.63Q457.01-17.65 455.88-18.04L455.88-18.04Q455.39-18.21 454.83-18.32 454.27-18.43 453.94-18.53 453.61-18.63 453.53-18.71 453.44-18.8 453.44-19.08 453.44-19.36 453.81-19.56L453.81-19.56 460.03-22.49Q460.33-22.63 460.4-22.63L460.4-22.63Q460.81-22.63 460.81-22.05L460.81-22.05 460.81-3.71Q460.81-1.32 463.45-0.93L463.45-0.93Q464.6-0.78 464.6-0.42 464.6-0.05 464.35 0L464.35 0ZM458.56-29.49Q457.54-29.49 456.77-30.13 456-30.76 456-31.9 456-33.03 456.74-33.69 457.47-34.35 458.48-34.35 459.5-34.35 460.19-33.57 460.89-32.79 460.89-31.88 460.89-30.98 460.23-30.24 459.57-29.49 458.56-29.49ZM482.37-17.5L482.37-17.5Q482.08-17.55 481.51-17.82L481.51-17.82Q479.49-18.75 478.34-18.75 477.19-18.75 475.94-17.32 474.68-15.89 474.68-14.75L474.68-14.75 474.68-3.71Q474.68-1.88 476.8-1.27L476.8-1.27Q477.73-1.03 478.54-0.92 479.34-0.81 479.57-0.71 479.81-0.61 479.81-0.33 479.81-0.05 479.56 0L479.56 0 467.33 0Q467.09-0.05 467.09-0.34L467.09-0.34Q467.09-0.78 468.23-0.93L468.23-0.93Q470.87-1.32 470.87-3.71L470.87-3.71 470.87-16.63Q470.87-17.65 469.75-18.04L469.75-18.04Q469.26-18.21 468.7-18.32 468.14-18.43 467.81-18.53 467.48-18.63 467.39-18.71 467.31-18.8 467.31-19.08 467.31-19.36 467.67-19.56L467.67-19.56 473.9-22.49Q474.19-22.63 474.26-22.63L474.26-22.63Q474.68-22.63 474.68-22.05L474.68-22.05 474.68-18.09Q474.68-17.8 474.83-17.8L474.83-17.8Q475.02-17.8 475.83-18.95L475.83-18.95Q478.15-22.19 479.66-22.19L479.66-22.19Q480.51-22.19 482.28-21.51 484.05-20.83 484.05-20.36L484.05-20.36Q484.05-19.8 483.49-18.65 482.93-17.5 482.37-17.5ZM500.85-4.03Q500.85-3.39 501.45-3.02 502.04-2.64 502.83-2.64 503.61-2.64 504.13-3.04 504.66-3.44 504.85-3.44 505.05-3.44 505.05-2.92 505.05-2.39 504.56-2.03L504.56-2.03Q500.9 0.66 499.6 0.66L499.6 0.66Q498.04 0.66 497.06-2.59L497.06-2.59Q496.99-2.83 496.94-2.81L496.94-2.81Q493.91-0.54 493.13-0.07L493.13-0.07Q491.13 1.07 489.12 0.29 487.1-0.49 486.2-2.29L486.2-2.29Q485.76-3.22 485.76-4.27L485.76-4.27Q485.76-6.35 487.3-7.57 488.84-8.79 493.16-9.91L493.16-9.91Q494.62-10.3 495.77-10.91 496.92-11.52 496.98-11.69 497.04-11.87 497.04-12.01L497.04-12.01 497.04-16.7Q497.04-19.46 494.89-20.58L494.89-20.58Q494.18-20.95 493.19-20.95 492.21-20.95 491.19-20.17 490.18-19.38 490.18-17.94L490.18-17.94 490.3-16.99Q490.15-16.7 488.54-16.02 486.93-15.33 486.69-15.28L486.69-15.28Q486.3-15.28 486.3-16.22 486.3-17.16 486.86-18.31 487.42-19.46 488.45-20.41L488.45-20.41Q490.84-22.63 493.91-22.63 496.99-22.63 498.92-20.94 500.85-19.24 500.85-16.89L500.85-16.89 500.85-4.03ZM489.59-4.74Q489.59-3.56 490.5-2.7 491.4-1.83 492.56-1.83 493.72-1.83 495.38-2.82 497.04-3.81 497.04-4.86L497.04-4.86 497.04-9.81Q497.04-10.08 496.92-10.08 496.8-10.08 496.75-10.06L496.75-10.06 491.08-7.42Q490.2-6.79 489.9-6.35 489.59-5.91 489.59-4.74ZM520.65-18.77L513.3-18.77Q513.15-18.77 513.15-18.55L513.15-18.55 513.15-5.08Q513.15-3.61 513.8-2.78 514.44-1.95 515.45-1.95 516.45-1.95 517.19-2.28 517.94-2.61 518.48-3 519.03-3.39 519.47-3.72 519.91-4.05 520.26-4.05 520.6-4.05 520.6-3.88L520.6-3.88Q520.6-3.3 520.47-3.13L520.47-3.13Q517.55 0.66 514.82 0.66 512.1 0.66 510.72-1.06 509.34-2.78 509.34-5.18L509.34-5.18 509.34-18.77 507.51-18.77Q506.83-18.77 506.79-19.21 506.75-19.65 506.92-19.78L506.92-19.78Q508.22-20.61 510.49-22.75L510.49-22.75Q510.73-23.02 511.15-23.56 511.56-24.1 512.36-25.02 513.15-25.95 513.57-25.95 513.98-25.95 513.98-25.61L513.98-25.61Q513.98-25.56 513.15-22.41L513.15-22.41Q513.15-21.97 513.54-21.95L513.54-21.95 519.77-21.95Q520.84-21.95 520.84-18.92L520.84-18.92Q520.84-18.77 520.65-18.77L520.65-18.77ZM534.05 0L523.16 0Q522.91-0.05 522.91-0.34L522.91-0.34Q522.91-0.78 524.06-0.93L524.06-0.93Q526.7-1.32 526.7-3.71L526.7-3.71 526.7-16.63Q526.7-17.65 525.57-18.04L525.57-18.04Q525.09-18.21 524.52-18.32 523.96-18.43 523.63-18.53 523.3-18.63 523.22-18.71 523.13-18.8 523.13-19.08 523.13-19.36 523.5-19.56L523.5-19.56 529.73-22.49Q530.02-22.63 530.09-22.63L530.09-22.63Q530.51-22.63 530.51-22.05L530.51-22.05 530.51-3.71Q530.51-1.32 533.14-0.93L533.14-0.93Q534.29-0.78 534.29-0.42 534.29-0.05 534.05 0L534.05 0ZM528.25-29.49Q527.23-29.49 526.47-30.13 525.7-30.76 525.7-31.9 525.7-33.03 526.43-33.69 527.16-34.35 528.17-34.35 529.19-34.35 529.88-33.57 530.58-32.79 530.58-31.88 530.58-30.98 529.92-30.24 529.26-29.49 528.25-29.49ZM537.34-10.97Q537.34-15.77 540.75-19.23 544.15-22.68 548.91-22.68 553.67-22.68 557.19-19.32 560.7-15.97 560.7-11.04 560.7-6.1 557.37-2.72 554.04 0.66 549.01 0.66 543.98 0.66 540.66-2.76 537.34-6.18 537.34-10.97ZM543.42-4.69L543.42-4.69Q545.81-0.66 549.94-0.66L549.94-0.66Q553.14-0.66 554.83-3.22 556.53-5.79 556.53-9.52 556.53-13.26 554.15-17.19 551.77-21.12 547.74-21.12L547.74-21.12Q544.79-21.12 543.09-18.57 541.39-16.02 541.39-12.1 541.39-8.18 543.42-4.69ZM582.16-7.69L582.16-7.69 582.11-12.84Q582.11-15.99 581.58-17.26 581.04-18.53 580.21-19.18 579.38-19.82 577.97-19.82 576.57-19.82 572.03-17.63L572.03-17.63Q571.42-17.26 571.39-16.94L571.39-16.94 571.39-3.81Q571.39-1.34 574.03-0.98L574.03-0.98Q575.18-0.81 575.18-0.43 575.18-0.05 574.93 0L574.93 0 564.05 0Q563.8-0.05 563.8-0.34L563.8-0.34Q563.8-0.81 564.95-0.98L564.95-0.98Q567.59-1.34 567.59-3.81L567.59-3.81 567.59-17.82Q567.59-18.85 566.46-19.24L566.46-19.24Q565.98-19.41 565.41-19.52 564.85-19.63 564.52-19.73 564.19-19.82 564.11-19.91 564.02-20 564.02-20.28 564.02-20.56 564.39-20.75L564.39-20.75 570.61-23.68Q570.91-23.83 570.98-23.83L570.98-23.83Q571.39-23.83 571.39-23.24L571.39-23.24 571.39-19.43Q571.47-19.19 571.59-19.19L571.59-19.19Q571.74-19.19 572.64-19.63L572.64-19.63Q574.74-20.68 576.86-21.66 578.99-22.63 580.38-22.63L580.38-22.63Q586.02-22.63 586.02-12.35L586.02-12.35 585.8-5.22 585.8-3.81Q585.8-1.9 587.7-1.32L587.7-1.32Q588.51-1.05 589.25-0.94 590-0.83 590.23-0.73 590.46-0.63 590.46-0.34 590.46-0.05 590.22 0L590.22 0 578.45 0Q578.21-0.05 578.21-0.34L578.21-0.34Q578.21-0.81 579.35-0.98L579.35-0.98Q581.97-1.34 581.97-4L581.97-4Q582.16-5.22 582.16-7.69ZM600.69-1.27L600.69-1.27Q600.69 3.27 596.42 6.3L596.42 6.3Q595.44 7.01 594.95 7.01L594.95 7.01Q594.59 7.01 594.59 6.35L594.59 6.35Q594.59 5.96 595.11 5.6 595.64 5.25 595.88 5.03L595.88 5.03Q598.35 2.81 598.35 1L598.35 1Q598.35 0.29 598.06 0.15 597.78 0 596.86 0 595.93 0 594.92-0.71 593.9-1.42 593.9-2.78 593.9-4.15 594.56-4.74L594.56-4.74Q595.68-5.76 596.71-5.76L596.71-5.76Q598.61-5.76 599.65-4.26 600.69-2.76 600.69-1.27ZM648.36-2.1Q646.24-0.81 643.73-0.07 641.21 0.66 639.26 0.66L639.26 0.66Q635.25 0.66 631.62-0.63L631.62-0.63Q626.64-2.44 623.61-5.98L623.61-5.98Q619.75-10.5 619.75-17.43L619.75-17.43Q619.75-22.44 622.32-26.55 624.88-30.66 629.41-33.06 633.94-35.45 639.15-35.45 644.36-35.45 648.49-33.13 652.61-30.81 655.1-26.76 657.59-22.71 657.59-17.98 657.59-13.26 655.13-9 652.66-4.74 648.36-2.1L648.36-2.1ZM624.88-18.21Q624.88-14.16 626.67-10.17 628.47-6.18 631.81-3.66 635.16-1.15 639.55-1.15L639.55-1.15Q645.8-1.15 649.29-5.93L649.29-5.93Q652.44-10.25 652.44-16.97 652.44-23.68 648.58-28.54L648.58-28.54Q646.7-30.91 643.98-32.34 641.26-33.76 638.49-33.76 635.72-33.76 633.95-33.15 632.18-32.54 630.74-31.48 629.3-30.42 628.2-28.96 627.1-27.49 626.37-25.78L626.37-25.78Q624.88-22.27 624.88-18.21ZM679.91-7.69L679.91-7.69 679.86-12.84Q679.86-15.99 679.32-17.26 678.78-18.53 677.95-19.18 677.12-19.82 675.72-19.82 674.31-19.82 669.77-17.63L669.77-17.63Q669.16-17.26 669.14-16.94L669.14-16.94 669.14-3.81Q669.14-1.34 671.78-0.98L671.78-0.98Q672.92-0.81 672.92-0.43 672.92-0.05 672.68 0L672.68 0 661.79 0Q661.55-0.05 661.55-0.34L661.55-0.34Q661.55-0.81 662.69-0.98L662.69-0.98Q665.33-1.34 665.33-3.81L665.33-3.81 665.33-17.82Q665.33-18.85 664.21-19.24L664.21-19.24Q663.72-19.41 663.16-19.52 662.6-19.63 662.27-19.73 661.94-19.82 661.85-19.91 661.77-20 661.77-20.28 661.77-20.56 662.13-20.75L662.13-20.75 668.36-23.68Q668.65-23.83 668.72-23.83L668.72-23.83Q669.14-23.83 669.14-23.24L669.14-23.24 669.14-19.43Q669.21-19.19 669.33-19.19L669.33-19.19Q669.48-19.19 670.38-19.63L670.38-19.63Q672.48-20.68 674.61-21.66 676.73-22.63 678.12-22.63L678.12-22.63Q683.76-22.63 683.76-12.35L683.76-12.35 683.54-5.22 683.54-3.81Q683.54-1.9 685.45-1.32L685.45-1.32Q686.25-1.05 687-0.94 687.74-0.83 687.97-0.73 688.21-0.63 688.21-0.34 688.21-0.05 687.96 0L687.96 0 676.19 0Q675.95-0.05 675.95-0.34L675.95-0.34Q675.95-0.81 677.1-0.98L677.1-0.98Q679.71-1.34 679.71-4L679.71-4Q679.91-5.22 679.91-7.69ZM708.49-12.87L694.33-12.87Q693.92-12.87 693.92-11.08L693.92-11.08Q693.92-7.3 696.16-4.74 698.41-2.17 701.74-2.17 705.07-2.17 708.15-5.05L708.15-5.05Q708.2-5.1 708.27-5.1L708.27-5.1 708.39-5.1Q708.54-5.1 708.67-4.87 708.81-4.64 708.93-4.57L708.93-4.57Q706.1-1.12 702.27 0.2L702.27 0.2Q700.95 0.66 699.29 0.66 697.63 0.66 695.92-0.26 694.21-1.17 692.99-2.66L692.99-2.66Q690.4-5.76 690.4-10.39 690.4-15.01 693.22-18.82 696.04-22.63 700.97-22.63L700.97-22.63Q704.51-22.63 706.76-19.47 709-16.31 709-13.92L709-13.92Q709-12.87 708.49-12.87L708.49-12.87ZM694.6-15.5L694.6-15.21Q694.6-14.75 695.04-14.75L695.04-14.75 704.24-14.75Q704.88-14.75 704.88-15.5L704.88-15.5Q704.88-17.26 703.3-19.1 701.73-20.95 699.85-20.95L699.85-20.95Q698.02-20.95 696.52-19.29 695.02-17.63 694.6-15.5L694.6-15.5ZM744.74 0.54L744.74 0.54Q740.88 0.2 737.64-1.45 734.39-3.1 732.19-5.42L732.19-5.42Q727.51-10.38 727.51-17.26L727.51-17.26Q727.51-25.2 732.94-30.3 738.37-35.4 746.48-35.4 754.58-35.4 759.92-30.37 765.25-25.34 765.25-17.5L765.25-17.5Q765.25-8.18 755.75-1.88L755.75-1.88Q755.53-1.73 753.88-0.93 752.24-0.12 752.24-0.01 752.24 0.1 753.76 1.14 755.29 2.17 760.24 6.18L760.24 6.18Q763.22 8.57 764.86 8.9 766.49 9.23 766.49 9.55L766.49 9.55Q766.49 10.16 765.71 10.3 764.93 10.45 763.35 10.45L763.35 10.45Q760.59 10.45 757.24 8.64L757.24 8.64Q751.36 4.76 749.33 2.83 747.31 0.9 745.77 0.66L745.77 0.66Q745.3 0.59 744.74 0.54ZM736.12-29.15Q734.41-27.05 733.5-24.23 732.58-21.41 732.61-18.75L732.61-18.75Q732.66-13.94 734.54-9.97 736.42-6.01 739.8-3.58 743.18-1.15 747.62-1.15L747.62-1.15Q753.07-1.15 756.68-5.41 760.29-9.67 760.29-16.58 760.29-23.49 756.75-28.17L756.75-28.17Q752.82-33.35 745.77-33.76L745.77-33.76Q739.86-33.76 736.12-29.15L736.12-29.15ZM786.37 0.05L786.37-2.15Q786.24-2.56 786.05-2.43 785.85-2.29 784.46-1.59L784.46-1.59Q779.9 0.68 776.84 0.68 773.79 0.68 772.45-1.27L772.45-1.27Q771.96-2 771.96-3.08L771.96-3.08 771.96-17.97Q771.89-18.68 771.33-19.19L771.33-19.19Q770.57-19.82 769.75-19.87 768.93-19.92 768.93-20.37 768.93-20.83 769.32-20.92L769.32-20.92 774.91-22.53Q775.21-22.63 775.49-22.63 775.77-22.63 775.77-22.22L775.77-22.22 775.77-5.83Q775.77-4.13 777.28-3.2 778.8-2.27 781.15-2.27 783.51-2.27 785.39-3.71L785.39-3.71Q785.97-4.17 786.37-4.74L786.37-4.74 786.37-17.97Q786.29-18.68 785.73-19.19L785.73-19.19Q784.97-19.82 784.16-19.87 783.34-19.92 783.34-20.37 783.34-20.83 783.73-20.92L783.73-20.92 789.32-22.53Q789.61-22.63 789.89-22.63 790.17-22.63 790.17-22.14L790.17-22.14 790.17-4.81Q790.3-3.74 790.78-3.27 791.27-2.81 792.37-2.81L792.37-2.81 793.79-2.91Q793.93-2.91 793.93-2.62 793.93-2.34 793.57-2.17L793.57-2.17 787.07 0.51Q786.78 0.66 786.57 0.66 786.37 0.66 786.37 0.05L786.37 0.05ZM797.23-10.97Q797.23-15.77 800.63-19.23 804.04-22.68 808.8-22.68 813.56-22.68 817.08-19.32 820.59-15.97 820.59-11.04 820.59-6.1 817.26-2.72 813.93 0.66 808.9 0.66 803.87 0.66 800.55-2.76 797.23-6.18 797.23-10.97ZM803.31-4.69L803.31-4.69Q805.7-0.66 809.82-0.66L809.82-0.66Q813.02-0.66 814.72-3.22 816.42-5.79 816.42-9.52 816.42-13.26 814.04-17.19 811.66-21.12 807.63-21.12L807.63-21.12Q804.67-21.12 802.98-18.57 801.28-16.02 801.28-12.1 801.28-8.18 803.31-4.69ZM837.41-18.77L830.06-18.77Q829.91-18.77 829.91-18.55L829.91-18.55 829.91-5.08Q829.91-3.61 830.56-2.78 831.21-1.95 832.21-1.95 833.21-1.95 833.96-2.28 834.7-2.61 835.25-3 835.8-3.39 836.24-3.72 836.68-4.05 837.02-4.05 837.36-4.05 837.36-3.88L837.36-3.88Q837.36-3.3 837.24-3.13L837.24-3.13Q834.31 0.66 831.59 0.66 828.87 0.66 827.49-1.06 826.11-2.78 826.11-5.18L826.11-5.18 826.11-18.77 824.28-18.77Q823.59-18.77 823.56-19.21 823.52-19.65 823.69-19.78L823.69-19.78Q824.98-20.61 827.25-22.75L827.25-22.75Q827.5-23.02 827.91-23.56 828.33-24.1 829.12-25.02 829.91-25.95 830.33-25.95 830.74-25.95 830.74-25.61L830.74-25.61Q830.74-25.56 829.91-22.41L829.91-22.41Q829.91-21.97 830.31-21.95L830.31-21.95 836.53-21.95Q837.61-21.95 837.61-18.92L837.61-18.92Q837.61-18.77 837.41-18.77L837.41-18.77ZM858.01-12.87L843.85-12.87Q843.44-12.87 843.44-11.08L843.44-11.08Q843.44-7.3 845.68-4.74 847.93-2.17 851.26-2.17 854.59-2.17 857.67-5.05L857.67-5.05Q857.72-5.1 857.79-5.1L857.79-5.1 857.92-5.1Q858.06-5.1 858.2-4.87 858.33-4.64 858.45-4.57L858.45-4.57Q855.62-1.12 851.79 0.2L851.79 0.2Q850.47 0.66 848.81 0.66 847.15 0.66 845.44-0.26 843.73-1.17 842.51-2.66L842.51-2.66Q839.92-5.76 839.92-10.39 839.92-15.01 842.74-18.82 845.56-22.63 850.49-22.63L850.49-22.63Q854.03-22.63 856.28-19.47 858.53-16.31 858.53-13.92L858.53-13.92Q858.53-12.87 858.01-12.87L858.01-12.87ZM844.12-15.5L844.12-15.21Q844.12-14.75 844.56-14.75L844.56-14.75 853.76-14.75Q854.4-14.75 854.4-15.5L854.4-15.5Q854.4-17.26 852.82-19.1 851.25-20.95 849.37-20.95L849.37-20.95Q847.54-20.95 846.04-19.29 844.54-17.63 844.12-15.5L844.12-15.5ZM891.14-4.03Q891.14-3.39 891.74-3.02 892.33-2.64 893.12-2.64 893.9-2.64 894.42-3.04 894.95-3.44 895.14-3.44 895.34-3.44 895.34-2.92 895.34-2.39 894.85-2.03L894.85-2.03Q891.19 0.66 889.89 0.66L889.89 0.66Q888.33 0.66 887.35-2.59L887.35-2.59Q887.28-2.83 887.23-2.81L887.23-2.81Q884.2-0.54 883.42-0.07L883.42-0.07Q881.42 1.07 879.41 0.29 877.39-0.49 876.49-2.29L876.49-2.29Q876.05-3.22 876.05-4.27L876.05-4.27Q876.05-6.35 877.59-7.57 879.13-8.79 883.45-9.91L883.45-9.91Q884.91-10.3 886.06-10.91 887.21-11.52 887.27-11.69 887.33-11.87 887.33-12.01L887.33-12.01 887.33-16.7Q887.33-19.46 885.18-20.58L885.18-20.58Q884.47-20.95 883.48-20.95 882.5-20.95 881.48-20.17 880.47-19.38 880.47-17.94L880.47-17.94 880.59-16.99Q880.44-16.7 878.83-16.02 877.22-15.33 876.98-15.28L876.98-15.28Q876.59-15.28 876.59-16.22 876.59-17.16 877.15-18.31 877.71-19.46 878.74-20.41L878.74-20.41Q881.13-22.63 884.2-22.63 887.28-22.63 889.21-20.94 891.14-19.24 891.14-16.89L891.14-16.89 891.14-4.03ZM879.88-4.74Q879.88-3.56 880.79-2.7 881.69-1.83 882.85-1.83 884.01-1.83 885.67-2.82 887.33-3.81 887.33-4.86L887.33-4.86 887.33-9.81Q887.33-10.08 887.21-10.08 887.09-10.08 887.04-10.06L887.04-10.06 881.37-7.42Q880.49-6.79 880.19-6.35 879.88-5.91 879.88-4.74ZM910.94-18.77L903.59-18.77Q903.44-18.77 903.44-18.55L903.44-18.55 903.44-5.08Q903.44-3.61 904.09-2.78 904.73-1.95 905.73-1.95 906.74-1.95 907.48-2.28 908.23-2.61 908.77-3 909.32-3.39 909.76-3.72 910.2-4.05 910.54-4.05 910.89-4.05 910.89-3.88L910.89-3.88Q910.89-3.3 910.76-3.13L910.76-3.13Q907.83 0.66 905.11 0.66 902.39 0.66 901.01-1.06 899.63-2.78 899.63-5.18L899.63-5.18 899.63-18.77 897.8-18.77Q897.12-18.77 897.08-19.21 897.04-19.65 897.21-19.78L897.21-19.78Q898.51-20.61 900.78-22.75L900.78-22.75Q901.02-23.02 901.44-23.56 901.85-24.1 902.65-25.02 903.44-25.95 903.86-25.95 904.27-25.95 904.27-25.61L904.27-25.61Q904.27-25.56 903.44-22.41L903.44-22.41Q903.44-21.97 903.83-21.95L903.83-21.95 910.06-21.95Q911.13-21.95 911.13-18.92L911.13-18.92Q911.13-18.77 910.94-18.77L910.94-18.77ZM941.96-4.03Q941.96-3.39 942.56-3.02 943.16-2.64 943.94-2.64 944.72-2.64 945.24-3.04 945.77-3.44 945.96-3.44 946.16-3.44 946.16-2.92 946.16-2.39 945.67-2.03L945.67-2.03Q942.01 0.66 940.72 0.66L940.72 0.66Q939.15 0.66 938.18-2.59L938.18-2.59Q938.1-2.83 938.05-2.81L938.05-2.81Q935.03-0.54 934.25-0.07L934.25-0.07Q932.24 1.07 930.23 0.29 928.22-0.49 927.31-2.29L927.31-2.29Q926.87-3.22 926.87-4.27L926.87-4.27Q926.87-6.35 928.41-7.57 929.95-8.79 934.27-9.91L934.27-9.91Q935.73-10.3 936.88-10.91 938.03-11.52 938.09-11.69 938.15-11.87 938.15-12.01L938.15-12.01 938.15-16.7Q938.15-19.46 936-20.58L936-20.58Q935.3-20.95 934.31-20.95 933.32-20.95 932.3-20.17 931.29-19.38 931.29-17.94L931.29-17.94 931.41-16.99Q931.27-16.7 929.66-16.02 928.04-15.33 927.8-15.28L927.8-15.28Q927.41-15.28 927.41-16.22 927.41-17.16 927.97-18.31 928.53-19.46 929.56-20.41L929.56-20.41Q931.95-22.63 935.03-22.63 938.1-22.63 940.03-20.94 941.96-19.24 941.96-16.89L941.96-16.89 941.96-4.03ZM930.71-4.74Q930.71-3.56 931.61-2.7 932.51-1.83 933.67-1.83 934.83-1.83 936.49-2.82 938.15-3.81 938.15-4.86L938.15-4.86 938.15-9.81Q938.15-10.08 938.03-10.08 937.91-10.08 937.86-10.06L937.86-10.06 932.19-7.42Q931.32-6.79 931.01-6.35 930.71-5.91 930.71-4.74ZM969.93-0.2L969.93-0.78Q969.93-0.98 970.15-0.98L970.15-0.98 970.84-0.98Q973.23-0.98 974.68-2 976.14-3.03 976.14-4.39L976.14-4.39 976.14-31.42Q976.14-31.93 975.93-31.99 975.72-32.06 975.43-32.1L975.43-32.1 966.05-32.1Q963.78-31.62 963.07-28.61L963.07-28.61Q962.68-27 962.61-26.55 962.54-26.1 962.34-26.1L962.34-26.1 961.9-26.1Q961.76-26.1 961.76-26.2L961.76-26.2 961.76-27 962.66-34.62Q962.81-35.38 963.15-35.38 963.49-35.38 963.88-34.9 964.27-34.42 965.37-34.42L965.37-34.42 991.69-34.42Q992.74-34.42 992.96-34.67 993.18-34.91 993.37-35.14 993.57-35.38 993.87-35.38 994.18-35.38 994.26-35.13 994.35-34.89 994.4-34.62L994.4-34.62 995.3-27 995.3-26.2Q995.3-26.1 995.15-26.1L995.15-26.1 994.71-26.1Q994.52-26.1 994.45-26.46L994.45-26.46Q994.06-28.91 993.32-30.33 992.59-31.76 991-32.1L991-32.1 981.6-32.1Q981.31-32.06 981.1-31.99 980.9-31.93 980.9-31.42L980.9-31.42 980.9-4.39Q980.9-3.03 982.35-2 983.8-0.98 986.19-0.98L986.19-0.98 986.9-0.98Q987.1-0.98 987.1-0.78L987.1-0.78 987.1-0.2Q987.1 0 986.9 0L986.9 0 970.13 0Q969.93 0 969.93-0.2L969.93-0.2ZM1009.46 0L998.57 0Q998.32-0.05 998.32-0.34L998.32-0.34Q998.32-0.78 999.47-0.93L999.47-0.93Q1002.11-1.32 1002.11-3.71L1002.11-3.71 1002.11-16.63Q1002.11-17.65 1000.99-18.04L1000.99-18.04Q1000.5-18.21 999.94-18.32 999.37-18.43 999.05-18.53 998.72-18.63 998.63-18.71 998.54-18.8 998.54-19.08 998.54-19.36 998.91-19.56L998.91-19.56 1005.14-22.49Q1005.43-22.63 1005.5-22.63L1005.5-22.63Q1005.92-22.63 1005.92-22.05L1005.92-22.05 1005.92-3.71Q1005.92-1.32 1008.55-0.93L1008.55-0.93Q1009.7-0.78 1009.7-0.42 1009.7-0.05 1009.46 0L1009.46 0ZM1003.66-29.49Q1002.65-29.49 1001.88-30.13 1001.11-30.76 1001.11-31.9 1001.11-33.03 1001.84-33.69 1002.57-34.35 1003.59-34.35 1004.6-34.35 1005.3-33.57 1005.99-32.79 1005.99-31.88 1005.99-30.98 1005.33-30.24 1004.67-29.49 1003.66-29.49ZM1044.81-7.69L1044.81-7.69 1044.76-12.84Q1044.76-15.99 1044.22-17.26 1043.68-18.53 1042.85-19.18 1042.02-19.82 1040.62-19.82 1039.22-19.82 1034.68-17.63L1034.68-17.63Q1034.06-17.26 1034.04-16.94L1034.04-16.94 1034.04-3.81Q1034.04-1.34 1036.68-0.98L1036.68-0.98Q1037.82-0.81 1037.82-0.43 1037.82-0.05 1037.58 0L1037.58 0 1026.69 0Q1026.45-0.05 1026.45-0.34L1026.45-0.34Q1026.45-0.81 1027.59-0.98L1027.59-0.98Q1030.23-1.34 1030.23-3.81L1030.23-3.81 1030.23-15.97Q1030.23-19.8 1025.5-19.8L1025.5-19.8Q1023.76-19.8 1020.69-17.75L1020.69-17.75Q1019.9-17.24 1019.54-16.8L1019.54-16.8 1019.54-3.81Q1019.54-1.34 1022.18-0.98L1022.18-0.98Q1023.32-0.81 1023.32-0.43 1023.32-0.05 1023.08 0L1023.08 0 1012.19 0Q1011.95-0.05 1011.95-0.34L1011.95-0.34Q1011.95-0.81 1013.09-0.98L1013.09-0.98Q1015.73-1.34 1015.73-3.76L1015.73-3.76 1015.73-17.82Q1015.73-18.85 1014.61-19.24L1014.61-19.24Q1014.12-19.41 1013.56-19.52 1013-19.63 1012.67-19.73 1012.34-19.82 1012.25-19.91 1012.17-20 1012.17-20.28 1012.17-20.56 1012.53-20.75L1012.53-20.75 1018.76-23.68Q1019.05-23.83 1019.12-23.83L1019.12-23.83Q1019.54-23.83 1019.54-23.24L1019.54-23.24 1019.54-19.19Q1019.56-19.04 1019.72-19.04 1019.88-19.04 1020.53-19.38 1021.17-19.73 1022.22-20.35 1023.27-20.97 1024.99-21.8 1026.72-22.63 1028.64-22.63L1028.64-22.63Q1031.75-22.63 1033.09-19.97L1033.09-19.97Q1033.6-18.9 1034.02-19.06 1034.43-19.21 1035.31-19.65L1035.31-19.65Q1037.38-20.68 1039.51-21.66 1041.63-22.63 1043.02-22.63L1043.02-22.63Q1048.66-22.63 1048.66-12.35L1048.66-12.35 1048.44-5.22 1048.44-3.81Q1048.44-1.9 1050.35-1.32L1050.35-1.32Q1051.15-1.05 1051.9-0.94 1052.64-0.83 1052.88-0.73 1053.11-0.63 1053.11-0.34 1053.11-0.05 1052.86 0L1052.86 0 1041.1 0Q1040.85-0.05 1040.85-0.34L1040.85-0.34Q1040.85-0.81 1042-0.98L1042-0.98Q1044.61-1.34 1044.61-4L1044.61-4Q1044.81-5.22 1044.81-7.69ZM1073-12.87L1058.84-12.87Q1058.43-12.87 1058.43-11.08L1058.43-11.08Q1058.43-7.3 1060.67-4.74 1062.92-2.17 1066.25-2.17 1069.58-2.17 1072.66-5.05L1072.66-5.05Q1072.71-5.1 1072.78-5.1L1072.78-5.1 1072.9-5.1Q1073.05-5.1 1073.19-4.87 1073.32-4.64 1073.44-4.57L1073.44-4.57Q1070.61-1.12 1066.78 0.2L1066.78 0.2Q1065.46 0.66 1063.8 0.66 1062.14 0.66 1060.43-0.26 1058.72-1.17 1057.5-2.66L1057.5-2.66Q1054.91-5.76 1054.91-10.39 1054.91-15.01 1057.73-18.82 1060.55-22.63 1065.48-22.63L1065.48-22.63Q1069.02-22.63 1071.27-19.47 1073.52-16.31 1073.52-13.92L1073.52-13.92Q1073.52-12.87 1073-12.87L1073-12.87ZM1059.11-15.5L1059.11-15.21Q1059.11-14.75 1059.55-14.75L1059.55-14.75 1068.75-14.75Q1069.39-14.75 1069.39-15.5L1069.39-15.5Q1069.39-17.26 1067.81-19.1 1066.24-20.95 1064.36-20.95L1064.36-20.95Q1062.53-20.95 1061.03-19.29 1059.53-17.63 1059.11-15.5L1059.11-15.5ZM1079.08-2.45Q1079.08-3.76 1080.01-4.72 1080.93-5.69 1082.25-5.69L1082.25-5.69Q1083.55-5.69 1084.49-4.75 1085.43-3.81 1085.43-2.47 1085.43-1.12 1084.5-0.23 1083.57 0.66 1082.25 0.66L1082.25 0.66Q1080.96 0.66 1080.02-0.24 1079.08-1.15 1079.08-2.45ZM1104.25-19.95L1102.39-19.95Q1102.29-21.7 1102-23.66L1102-23.66Q1102-23.66 1101.54-26.86L1101.54-26.86Q1100.81-31.59 1100.81-32.4 1100.81-33.2 1101.64-33.81 1102.47-34.42 1103.42-34.42 1104.37-34.42 1105.14-33.81 1105.91-33.2 1105.91-32.41 1105.91-31.62 1105.71-30.1 1105.52-28.59 1105.25-26.82 1104.98-25.05 1104.7-23.23 1104.42-21.41 1104.25-19.95L1104.25-19.95ZM1095.29-19.92L1093.46-19.92Q1093.36-21.51 1092.6-26.54 1091.85-31.57 1091.85-32.37 1091.85-33.18 1092.65-33.8 1093.46-34.42 1094.45-34.42 1095.43-34.42 1096.19-33.8 1096.95-33.18 1096.95-32.41 1096.95-31.64 1096.75-30.13 1096.56-28.61 1096.29-26.83 1096.02-25.05 1095.74-23.22 1095.46-21.39 1095.29-19.92L1095.29-19.92Z" opacity="1" transform="matrix(1,0,0,1,0,0)" fill="#ffffff" class="slogan-text-1" data-fill-palette-color="quaternary" id="text-1"></path></svg></g></svg></g></svg></g></svg></g><g></g></svg></g><defs></defs></svg><rect width="395.52" height="136.5173107958904" fill="none" stroke="none" visibility="hidden"></rect></g></svg></g></svg>